<?xml version='1.0' encoding='utf-8'?>
<svg xmlns="http://www.w3.org/2000/svg" width="1200" height="630" viewBox="0 0 1200 630">
  <defs>
    <linearGradient id="g" x1="0" y1="0" x2="1" y2="1">
      <stop offset="0%" stop-color="#fca5a5" />
      <stop offset="100%" stop-color="#fde68a" />
    </linearGradient>
    <filter id="soft" x="-20%" y="-20%" width="140%" height="140%">
      <feGaussianBlur stdDeviation="6" />
    </filter>
  </defs>
  <rect width="1200" height="630" rx="32" fill="url(#g)" />
  <g fill="none" stroke="#ffffff" stroke-width="14" stroke-linecap="round" stroke-linejoin="round" transform="translate(680.000,189.000) scale(0.400)">
    
      <polygon points="600,220 700,300 660,430 540,430 500,300" />
      <path d="M780 240l16 32 36 6-26 26 6 36-32-17-32 17 6-36-26-26 36-6z" fill="#fff" stroke="none" opacity="0.9" />
      <path d="M420 220l12 24 28 4-20 20 4 28-24-13-24 13 4-28-20-20 28-4z" fill="#fff" stroke="none" opacity="0.8" />
    
  </g>
<g fill="#ffffff"><text x="120.0" y="300.0" font-family="Pretendard, Apple SD Gothic Neo, Noto Sans KR, sans-serif" font-size="64.000" font-weight="700">금쪽이 테스트</text><text x="120.0" y="370.0" font-family="Pretendard, Apple SD Gothic Neo, Noto Sans KR, sans-serif" font-size="28.000" opacity="0.9">내 안의 금쪽력(?)을 가볍게 점검</text></g></svg>