<?xml version='1.0' encoding='utf-8'?>
<svg xmlns="http://www.w3.org/2000/svg" width="1200" height="630" viewBox="0 0 1200 630">
  <defs>
    <linearGradient id="g" x1="0" y1="0" x2="1" y2="1">
      <stop offset="0%" stop-color="#ffc6c7" />
      <stop offset="100%" stop-color="#ffd8a8" />
    </linearGradient>
    <filter id="blur"><feGaussianBlur stdDeviation="5" /></filter>
  </defs>
  <rect width="1200" height="630" rx="28" fill="url(#g)" />
  <g fill="none" stroke="#ffffff" stroke-width="12" stroke-linecap="round" stroke-linejoin="round" transform="translate(680.000,189.000) scale(0.400)">
    
      <rect x="380" y="200" width="460" height="280" rx="22" />
      <line x1="380" y1="250" x2="840" y2="250" />
      <line x1="470" y1="180" x2="470" y2="230" />
      <line x1="730" y1="180" x2="730" y2="230" />
      <path d="M610 420c55-40 80-60 80-90a40 40 0 0 0-80 0 40 40 0 0 0-80 0c0 30 25 50 80 90z" fill="#fff" stroke="none" opacity="0.9" />
    
  </g>
<g fill="#ffffff"></g>
  <g fill="#ffffff">
    <text x="120" y="300" font-family="Pretendard, Apple SD Gothic Neo, Noto Sans KR, sans-serif" font-size="64" font-weight="700">선물/감사 표현 취향</text>
    <text x="120" y="370" font-family="Pretendard, Apple SD Gothic Neo, Noto Sans KR, sans-serif" font-size="28" opacity="0.9">실용·경험·감성·품질</text>
  </g>

</svg>