<?xml version='1.0' encoding='utf-8'?>
<svg xmlns="http://www.w3.org/2000/svg" width="1200" height="630" viewBox="0 0 1200 630">
  <defs>
    <linearGradient id="g" x1="0" y1="0" x2="1" y2="1">
      <stop offset="0%" stop-color="#f472b6" />
      <stop offset="100%" stop-color="#ef4444" />
    </linearGradient>
    <filter id="soft" x="-20%" y="-20%" width="140%" height="140%">
      <feGaussianBlur stdDeviation="6" />
    </filter>
  </defs>
  <rect width="1200" height="630" rx="32" fill="url(#g)" />
  <g fill="none" stroke="#ffffff" stroke-width="14" stroke-linecap="round" stroke-linejoin="round" transform="translate(680.000,189.000) scale(0.400)">
    
      <rect x="720" y="220" width="40" height="220" rx="20" />
      <circle cx="740" cy="460" r="60" />
      <path d="M520 360c55-40 80-60 80-90a40 40 0 0 0-80 0 40 40 0 0 0-80 0c0 30 25 50 80 90z" fill="#fff" stroke="none" opacity="0.9" />
      <line x1="740" y1="240" x2="740" y2="420" />
    
  </g>
<g fill="#ffffff"><text x="120.0" y="300.0" font-family="Pretendard, Apple SD Gothic Neo, Noto Sans KR, sans-serif" font-size="64.000" font-weight="700">깻잎 레벨 테스트</text><text x="120.0" y="370.0" font-family="Pretendard, Apple SD Gothic Neo, Noto Sans KR, sans-serif" font-size="28.000" opacity="0.9">관여·자율의 경계 어디쯤?</text></g></svg>