<?xml version='1.0' encoding='utf-8'?>
<svg xmlns="http://www.w3.org/2000/svg" width="1200" height="630" viewBox="0 0 1200 630">
  <defs>
    <linearGradient id="g" x1="0" y1="0" x2="1" y2="1">
      <stop offset="0%" stop-color="#86efac" />
      <stop offset="100%" stop-color="#60a5fa" />
    </linearGradient>
    <filter id="soft" x="-20%" y="-20%" width="140%" height="140%">
      <feGaussianBlur stdDeviation="6" />
    </filter>
  </defs>
  <rect width="1200" height="630" rx="32" fill="url(#g)" />
  <g fill="none" stroke="#ffffff" stroke-width="14" stroke-linecap="round" stroke-linejoin="round" transform="translate(680.000,189.000) scale(0.400)">
    
      <path d="M520 360c-60 0-120-60-120-120 80 0 120 60 120 120z" fill="#fff" stroke="none" opacity="0.85" />
      <path d="M520 360c0-60 60-120 120-120 0 80-60 120-120 120z" fill="#fff" stroke="none" opacity="0.85" />
      <path d="M520 360c-40-40-80-60-120-60" />
      <path d="M520 360c40-40 80-60 120-60" />
    
  </g>
<g fill="#ffffff"></g>
  <g fill="#ffffff">
    <text x="120" y="300" font-family="Pretendard, Apple SD Gothic Neo, Noto Sans KR, sans-serif" font-size="64" font-weight="700">미니멀 vs 수집가</text>
    <text x="120" y="370" font-family="Pretendard, Apple SD Gothic Neo, Noto Sans KR, sans-serif" font-size="28" opacity="0.9">소유·정리·애착·활용</text>
  </g>

</svg>