<?xml version='1.0' encoding='utf-8'?>
<svg xmlns="http://www.w3.org/2000/svg" width="1200" height="630" viewBox="0 0 1200 630">
  <defs>
    <linearGradient id="g" x1="0" y1="0" x2="1" y2="1">
      <stop offset="0%" stop-color="#f9a8d4" />
      <stop offset="100%" stop-color="#bfdbfe" />
    </linearGradient>
    <filter id="soft" x="-20%" y="-20%" width="140%" height="140%">
      <feGaussianBlur stdDeviation="6" />
    </filter>
  </defs>
  <rect width="1200" height="630" rx="32" fill="url(#g)" />
  <g fill="none" stroke="#ffffff" stroke-width="14" stroke-linecap="round" stroke-linejoin="round" transform="translate(680.000,189.000) scale(0.400)">
    
      <circle cx="520" cy="280" r="34" />
      <circle cx="600" cy="320" r="22" />
      <path d="M460 340h120a50 50 0 0 1 50 50v50H410v-50a50 50 0 0 1 50-50z" />
      <path d="M750 380c45-32 66-48 66-72a32 32 0 0 0-64 0 32 32 0 0 0-64 0c0 24 21 40 62 72z" fill="#fff" stroke="none" opacity="0.9" />
    
  </g>
<g fill="#ffffff"><text x="120.0" y="300.0" font-family="Pretendard, Apple SD Gothic Neo, Noto Sans KR, sans-serif" font-size="64.000" font-weight="700">당신은 어떤 엄마일까요?</text><text x="120.0" y="370.0" font-family="Pretendard, Apple SD Gothic Neo, Noto Sans KR, sans-serif" font-size="28.000" opacity="0.9">돌봄·규칙·공감의 균형을 체크</text></g></svg>