<?xml version='1.0' encoding='utf-8'?>
<svg xmlns="http://www.w3.org/2000/svg" width="1200" height="630" viewBox="0 0 1200 630"><defs><linearGradient id="bgGrad" x1="0%" y1="0%" x2="100%" y2="100%"><stop offset="0%" stop-color="#0f172a" /><stop offset="100%" stop-color="#111827" /></linearGradient></defs><rect x="0" y="0" width="1200" height="630" fill="url(#bgGrad)" /><g transform="translate(680.000,189.000) scale(0.400)"><polygon points="780.0,135.0 733.0,250.3 608.8,259.4 703.9,339.7 674.2,460.6 780.0,395.0 885.8,460.6 856.1,339.7 951.2,259.4 827.0,250.3" fill="#ffffff" opacity="0.10" /><polygon points="960.0,131.6 942.4,177.3 893.4,180.0 931.5,210.9 918.9,258.2 960.0,231.6 1001.1,258.2 988.5,210.9 1026.6,180.0 977.6,177.3" fill="#ffffff" opacity="0.18" /><use href="#ic_crown_base" fill="#000000" opacity="0.18" transform="translate(4,6)" /><rect x="720.0" y="302.4" width="360" height="77.0" rx="18" ry="18" id="ic_crown_base" fill="#ffffff" /><use href="#ic_peak_0" fill="#000000" opacity="0.18" transform="translate(4,6)" /><polygon id="ic_peak_0" points="799.2,302.4 729.2,379.4 869.2,379.4" fill="#ffffff" /><use href="#ic_peak_1" fill="#000000" opacity="0.18" transform="translate(4,6)" /><polygon id="ic_peak_1" points="900.0,302.4 830.0,379.4 970.0,379.4" fill="#ffffff" /><use href="#ic_peak_2" fill="#000000" opacity="0.18" transform="translate(4,6)" /><polygon id="ic_peak_2" points="1000.8,302.4 930.8,379.4 1070.8,379.4" fill="#ffffff" /></g><text x="120.000" y="300.000" font-family="Pretendard, Apple SD Gothic Neo, Noto Sans KR, sans-serif" font-size="64.000" font-weight="700" fill="#ffffff">NCT DREAM 덕력 테스트</text><text x="120.000" y="370.000" font-family="Pretendard, Apple SD Gothic Neo, Noto Sans KR, sans-serif" font-size="28.000" font-weight="700" fill="#ffffff" opacity="0.9">스스로 점검하는 팬력 12문항</text></svg>