<?xml version='1.0' encoding='utf-8'?>
<svg xmlns="http://www.w3.org/2000/svg" width="1200" height="630" viewBox="0 0 1200 630"><defs><linearGradient id="bgGrad" x1="0%" y1="0%" x2="100%" y2="100%"><stop offset="0%" stop-color="#D7E3FC" /><stop offset="100%" stop-color="#CDE7FF" /></linearGradient></defs><rect x="0" y="0" width="1200" height="630" fill="url(#bgGrad)" /><g transform="translate(680.000,189.000) scale(0.400)"><polygon points="780.0,135.0 733.0,250.3 608.8,259.4 703.9,339.7 674.2,460.6 780.0,395.0 885.8,460.6 856.1,339.7 951.2,259.4 827.0,250.3" fill="#ffffff" opacity="0.12" /><polygon points="960.0,131.6 942.4,177.3 893.4,180.0 931.5,210.9 918.9,258.2 960.0,231.6 1001.1,258.2 988.5,210.9 1026.6,180.0 977.6,177.3" fill="#ffffff" opacity="0.20" /><use href="#ic_case_body" fill="#000000" opacity="0.12" transform="translate(4,6)" /><rect x="792.0" y="214.20000000000002" width="360" height="250" rx="24" ry="24" id="ic_case_body" fill="#ffffff" /><use href="#ic_case_handle" fill="#000000" opacity="0.12" transform="translate(4,6)" /><rect x="892.0" y="172.20000000000002" width="160" height="70" rx="24" ry="24" id="ic_case_handle" fill="#ffffff" /><rect x="952.0" y="327.20000000000005" width="40" height="24" rx="6" ry="6" fill="#ffffff" /></g>
  <g fill="#ffffff">
    <text x="120" y="300" font-family="Pretendard, Apple SD Gothic Neo, Noto Sans KR, sans-serif" font-size="64" font-weight="700">팀 내 역할 경향</text>
    <text x="120" y="370" font-family="Pretendard, Apple SD Gothic Neo, Noto Sans KR, sans-serif" font-size="28" opacity="0.9">전략·실행·조율·품질</text>
  </g>

</svg>